<?xml version="1.0" encoding="utf-8"?>
<!-- Generator: Adobe Illustrator 21.1.0, SVG Export Plug-In . SVG Version: 6.00 Build 0)  -->
<svg version="1.1" id="Layer_1" xmlns="http://www.w3.org/2000/svg" xmlns:xlink="http://www.w3.org/1999/xlink" x="0px" y="0px"
	 viewBox="0 0 420 420" style="enable-background:new 0 0 420 420;" xml:space="preserve">
<style type="text/css">
	.st0{fill:#f0f0f0;}
</style>
<g>
	<path class="st0" d="M233.4,0L0,233.4v14.3L247.6,0H233.4z M265.7,0L0,265.7v14.3L279.9,0H265.7z M330.3,0L0,330.3v14.3L344.5,0
		H330.3z M298,0L0,298v14.3L312.2,0H298z M362.6,0L0,362.6v14.3L376.9,0H362.6z M104.1,0L0,104.1v14.3L118.4,0H104.1z M7.2,0L0,7.2
		v14.3L21.5,0H7.2z M71.8,0L0,71.8v14.3L86.1,0H71.8z M39.5,0L0,39.5v14.3L53.8,0H39.5z M136.4,0L0,136.4v14.3L150.7,0H136.4z
		 M409.2,0h-14.3L0,394.9v14.3l404-404L409.2,0z M168.7,0L0,168.7V183L183,0H168.7z M201.1,0L0,201.1v14.3L215.3,0H201.1z
		 M344.5,420l55.5-55.5v0l20-20v-14.3L330.2,420H344.5z M312.2,420l90.9-90.9l16.9-16.9v-14.3L297.9,420H312.2z M404,281.6
		L265.6,420h14.3L420,279.9v-14.3L404,281.6L404,281.6z M402.4,250.9l-2.4,2.4L233.3,420h14.3L420,247.6v-14.3l-16,16L402.4,250.9z
		 M376.8,420l43.2-43.2v-14.3L362.5,420H376.8z M394.8,420h14.3l10.9-10.9v-14.3l-20,20L394.8,420z M7.2,420h14.3L400.4,41.1
		L420,21.5V7.2L7.2,420z M86.1,420L420,86.1V71.8L71.8,420H86.1z M104.1,420h14.3L420,118.4v-14.3l-20,20L104.1,420z M53.8,420
		L420,53.8V39.5L39.5,420H53.8z M150.7,420L420,150.7v-14.3L136.4,420H150.7z M215.3,420L420,215.3V201L201,420H215.3z M183,420
		l217-217v0l20-20v-14.3L168.7,420H183z"/>
</g>
</svg>
